<svg width="100" height="100" viewBox="0 0 100 100" fill="none" xmlns="http://www.w3.org/2000/svg">
<circle cx="50" cy="50" r="50" fill="#2C2C2E"/>
<path d="M61.78 73.1324C64.3344 73.1324 66.4176 71.1559 66.4176 68.7192C66.4176 66.2825 64.3406 64.306 61.78 64.306C59.2194 64.306 57.1424 66.2825 57.1424 68.7192C57.1424 71.1559 59.2256 73.1324 61.78 73.1324ZM61.78 66.0819C63.3114 66.0819 64.5576 67.2678 64.5576 68.7251C64.5576 70.1824 63.3114 71.3683 61.78 71.3683C60.2486 71.3683 59.0024 70.1824 59.0024 68.7251C59.0024 67.2678 60.2548 66.0819 61.78 66.0819Z" fill="#C7A676"/>
<path d="M33.5824 68.7251C33.5824 71.1559 35.6594 73.1383 38.22 73.1383C40.7806 73.1383 42.8576 71.1618 42.8576 68.7251C42.8576 66.2884 40.7806 64.3119 38.22 64.3119C35.6594 64.3119 33.5824 66.2884 33.5824 68.7251ZM40.9914 68.7251C40.9914 70.1824 39.7452 71.3683 38.2138 71.3683C36.6824 71.3683 35.4362 70.1824 35.4362 68.7251C35.4362 67.2678 36.6824 66.0819 38.2138 66.0819C39.7452 66.0819 40.9914 67.2678 40.9914 68.7251Z" fill="#C7A676"/>
<path d="M28.5356 68.7251C28.5356 73.805 32.8756 77.935 38.2138 77.935C43.552 77.935 47.892 73.805 47.892 68.7251C47.892 67.0023 47.3898 65.3444 46.4474 63.893C47.2286 62.6363 48.4872 60.6067 49.9938 58.1464C51.3578 60.3707 52.5854 62.3531 53.5402 63.893C52.5978 65.3444 52.0956 67.0023 52.0956 68.7251C52.0956 73.805 56.4356 77.935 61.7738 77.935C67.112 77.935 71.452 73.805 71.452 68.7251C71.452 63.6806 67.1616 59.5683 61.873 59.5152C60.5648 57.3735 58.215 53.4559 55.5366 48.9601C58.9838 43.1368 61.2406 39.1071 62.4248 36.6645C66.3556 28.5579 61.222 23.5311 60.9988 23.3187C60.7942 23.124 60.509 23.0296 60.2176 23.065C59.9324 23.1004 59.6782 23.2656 59.5356 23.5075C59.5356 23.5075 54.9972 31.1893 50 39.6263C45.0462 31.2837 40.5512 23.6668 40.4582 23.5193C40.3156 23.2774 40.0614 23.1122 39.7762 23.0768C39.4848 23.0355 39.1996 23.1299 38.995 23.3305C38.7718 23.5429 33.6382 28.5638 37.569 36.6763C38.9516 39.526 41.6052 44.1575 44.451 48.9601C41.6858 53.627 39.3546 57.4915 38.1146 59.5211C32.826 59.5683 28.5356 63.6747 28.5356 68.7251ZM60.4718 25.543C61.5878 27.1832 63.2184 30.8176 60.7384 35.927C59.641 38.1926 57.5826 41.8801 54.4702 47.1606C53.3604 45.2903 52.2072 43.3551 51.0664 41.4376C55.1088 34.6172 58.9528 28.1154 60.4718 25.543ZM39.522 25.543C42.8142 31.1126 56.944 55.0076 60.5462 60.8486C60.5524 60.8545 60.5586 60.8604 60.5648 60.8722C60.5896 60.9135 60.6206 60.9489 60.6516 60.9843C60.6578 60.9902 60.664 61.002 60.6702 61.0079C60.7074 61.0433 60.7446 61.0787 60.788 61.1141C60.788 61.1141 60.7942 61.1141 60.7942 61.12C60.9616 61.238 61.1662 61.3088 61.3956 61.297C61.5258 61.2911 61.656 61.2852 61.7862 61.2852C66.1014 61.2852 69.6044 64.6246 69.6044 68.7251C69.6044 72.8256 66.0952 76.165 61.78 76.165C57.4648 76.165 53.9618 72.8256 53.9618 68.7251C53.9618 67.1911 54.4454 65.7279 55.363 64.4771C55.6048 64.1998 55.6482 63.7986 55.4436 63.4682C54.4826 61.9224 52.79 59.1966 50.8432 56.0047C50.8308 55.9752 50.8122 55.9516 50.7936 55.9221C46.6582 49.1489 41.3696 40.2812 39.2554 35.927C36.7754 30.8176 38.4122 27.1832 39.522 25.543ZM48.9274 56.3823C46.9806 59.5683 45.3624 62.1702 44.5564 63.4623C44.3518 63.7927 44.3952 64.1939 44.637 64.4712C45.5546 65.722 46.0382 67.1852 46.0382 68.7192C46.0382 72.8256 42.529 76.1591 38.22 76.1591C33.911 76.1591 30.4018 72.8197 30.4018 68.7192C30.4018 64.6187 33.9048 61.2793 38.22 61.2793C38.3502 61.2793 38.4804 61.2852 38.6044 61.2911C38.9578 61.3088 39.2678 61.1318 39.4414 60.8604C39.4414 60.8545 39.4476 60.8545 39.4538 60.8486C40.5388 59.0845 42.7832 55.3616 45.5236 50.7478C46.6644 52.6653 47.8238 54.5769 48.9274 56.3823Z" fill="#C7A676"/>
<path d="M51.1532 48.9542C51.1532 48.3524 50.6386 47.8627 50.0062 47.8627C49.3738 47.8627 48.8592 48.3524 48.8592 48.9542C48.8592 49.556 49.3738 50.0457 50.0062 50.0457C50.6386 50.0457 51.1532 49.556 51.1532 48.9542ZM49.2932 48.9542C49.2932 48.5825 49.6156 48.2757 50.0062 48.2757C50.3968 48.2757 50.7192 48.5825 50.7192 48.9542C50.7192 49.3259 50.3968 49.6327 50.0062 49.6327C49.6156 49.6327 49.2932 49.3259 49.2932 48.9542Z" fill="#C7A676"/>
</svg>
