<svg width="100" height="100" viewBox="0 0 100 100" fill="none" xmlns="http://www.w3.org/2000/svg">
<circle cx="50" cy="50" r="50" fill="#2C2C2E"/>
<path fill-rule="evenodd" clip-rule="evenodd" d="M72.8693 79.4164C70.8675 79.4164 68.9015 78.2262 67.3287 76.0839L54.9965 58.9057C54.9608 58.866 54.925 58.7866 54.8893 58.747C53.674 56.5253 50.7786 53.1135 48.3479 52.7564C47.5615 52.6771 46.9181 52.9151 46.3461 53.5895L42.4141 57.9138C41.878 58.5486 40.9486 58.5486 40.4124 57.9138C39.8405 57.2791 39.8405 56.2873 40.4124 55.6525L44.3086 51.3282C45.524 49.9793 47.0253 49.3842 48.7053 49.6223C52.2799 50.0984 55.7472 54.264 57.2842 57.0014L69.5807 74.1002C70.7603 75.7665 72.1543 76.4806 73.4769 76.1632C74.6923 75.8458 75.7289 74.6557 76.0506 73.1481C76.2293 72.2356 76.3008 70.4107 74.4063 68.7048L59.0358 55.0574C56.5693 53.4308 53.2808 48.6701 49.0985 42.7193C43.5222 34.6657 35.8727 23.6764 31.1186 23.2004C30.3322 23.121 29.6888 23.3591 29.0811 23.9541L20.4307 33.5152C19.8945 34.15 18.9651 34.15 18.4289 33.5152C17.857 32.8805 17.857 31.8887 18.4289 31.2936L27.0793 21.6531C27.1151 21.6531 27.1151 21.6135 27.1508 21.6135C28.3304 20.4233 29.7603 19.8679 31.3688 20.0266C37.374 20.6613 44.8091 31.3332 51.3862 40.7753C55.068 46.0914 58.5711 51.0902 60.5728 52.3994C60.6443 52.439 60.6801 52.4787 60.7515 52.5184L76.1936 66.2451C78.4455 68.2684 79.4107 71.0455 78.8387 73.8622C78.2668 76.5599 76.4438 78.6626 74.1203 79.2577C73.6914 79.3767 73.2625 79.4164 72.8693 79.4164Z" fill="#C7A676"/>
<path fill-rule="evenodd" clip-rule="evenodd" d="M23.1831 38.1569C22.8257 38.1569 22.4682 37.9982 22.1822 37.6808C21.6103 37.0858 21.6103 36.0543 22.1822 35.4592L29.1526 27.723C29.6888 27.0883 30.6182 27.0883 31.1543 27.723C31.7263 28.3578 31.7263 29.3496 31.1543 29.9447L24.2197 37.6808C23.9338 37.9982 23.5406 38.1569 23.1831 38.1569Z" fill="#C7A676"/>
<path fill-rule="evenodd" clip-rule="evenodd" d="M26.7934 42.1638C26.4359 42.1638 26.0785 42.0051 25.7925 41.6878C25.2206 41.0927 25.2206 40.0612 25.7925 39.4661L33.4421 30.9762C33.9782 30.3811 34.9076 30.3811 35.4438 30.9762C36.0157 31.6109 36.0157 32.6028 35.4438 33.2375L27.83 41.6878C27.5441 42.0051 27.1866 42.1638 26.7934 42.1638Z" fill="#C7A676"/>
<path fill-rule="evenodd" clip-rule="evenodd" d="M30.4394 46.1708C30.0462 46.1708 29.6888 46.0121 29.4028 45.7344C28.8666 45.0996 28.8666 44.1078 29.4028 43.473L38.2677 33.6739C38.8039 33.0391 39.7332 33.0391 40.2694 33.6739C40.8414 34.269 40.8414 35.3005 40.2694 35.8956L31.4403 45.7344C31.1543 46.0121 30.7969 46.1708 30.4394 46.1708Z" fill="#C7A676"/>
<path fill-rule="evenodd" clip-rule="evenodd" d="M34.0498 50.1777C33.6566 50.1777 33.2991 50.019 33.0132 49.7413C32.477 49.1065 32.477 48.1147 33.0132 47.48L40.6627 39.0297C41.2346 38.3949 42.1282 38.3949 42.6644 39.0297C43.2364 39.6248 43.2364 40.6563 42.6644 41.2514L35.0506 49.7413C34.7647 50.019 34.4072 50.1777 34.0498 50.1777Z" fill="#C7A676"/>
<path fill-rule="evenodd" clip-rule="evenodd" d="M37.66 54.2243C37.3026 54.2243 36.9094 54.0656 36.6234 53.7482C36.0872 53.1135 36.0872 52.1216 36.6234 51.4869L43.5938 43.7507C44.1657 43.1556 45.0593 43.1556 45.6312 43.7507C46.1674 44.3855 46.1674 45.3773 45.6312 46.0121L38.6609 53.7482C38.3749 54.0656 38.0175 54.2243 37.66 54.2243Z" fill="#C7A676"/>
</svg>
