<svg width="100" height="100" viewBox="0 0 100 100" fill="none" xmlns="http://www.w3.org/2000/svg">
<circle cx="50" cy="50" r="50" fill="#2C2C2E"/>
<path fill-rule="evenodd" clip-rule="evenodd" d="M63.3185 83.8434C60.1756 83.8434 57.6371 81.1018 57.6371 77.7074V23.136C57.6371 19.7416 60.1756 17 63.3185 17C66.4615 17 69 19.7416 69 23.136V77.7074C69 81.1018 66.4615 83.8434 63.3185 83.8434ZM63.3185 18.8277C61.1427 18.8277 59.3294 20.7861 59.3294 23.136V77.7074C59.3294 80.0574 61.1427 82.0157 63.3185 82.0157C65.4944 82.0157 67.3076 80.0574 67.3076 77.7074V23.136C67.3076 20.7861 65.4944 18.8277 63.3185 18.8277Z" fill="#C7A676"/>
<path fill-rule="evenodd" clip-rule="evenodd" d="M18.7131 54.4689C18.7131 54.4689 18.5922 54.4689 18.4714 54.4689C18.3505 54.3383 18.1087 54.2078 17.9878 53.9466L16.4164 51.0745C15.5702 49.6384 16.0537 47.6801 17.5043 46.7662L58.1206 21.4388C58.3624 21.3083 58.725 21.3083 58.9668 21.4388C59.2086 21.5694 59.3294 21.961 59.3294 22.2221V28.7498C59.3294 29.1415 59.2086 29.4026 58.9668 29.5331L19.1967 54.3383C19.0758 54.4689 18.834 54.4689 18.7131 54.4689ZM18.3505 48.3328C17.7461 48.7245 17.5043 49.5078 17.867 50.03C17.867 50.03 17.867 50.03 17.867 50.1606L19.0758 52.2495L57.6371 28.2276V23.7888L18.3505 48.3328Z" fill="#C7A676"/>
<path fill-rule="evenodd" clip-rule="evenodd" d="M20.6472 57.9938C20.4055 57.9938 20.1637 57.8633 19.9219 57.6021L17.9878 54.0772C17.7461 53.555 17.8669 53.0328 18.3505 52.7717C18.7131 52.5106 19.1966 52.6411 19.4384 53.0328L21.0099 55.7744L45.5489 40.4996L43.9774 37.758C43.7357 37.2358 43.9774 36.7136 44.3401 36.4525C44.7027 36.1914 45.3071 36.3219 45.5489 36.8441L47.483 40.4996C47.6039 40.8913 47.483 41.4135 47.1204 41.6746L21.1308 57.8633C21.0099 57.9938 20.7681 57.9938 20.6472 57.9938Z" fill="#C7A676"/>
<path fill-rule="evenodd" clip-rule="evenodd" d="M65.2527 30.9692H61.2636C60.5383 30.9692 60.0547 30.447 60.0547 29.6637V24.9638C60.0547 24.1804 60.6592 23.5277 61.2636 23.5277H65.2527C65.978 23.5277 66.5824 24.1804 66.5824 24.9638V29.6637C66.5824 30.447 66.0988 30.9692 65.2527 30.9692ZM61.7471 29.1415H64.89V25.3554H61.7471V29.1415Z" fill="#C7A676"/>
<path fill-rule="evenodd" clip-rule="evenodd" d="M65.2527 77.3157H61.2636C60.6592 77.3157 60.0547 76.663 60.0547 75.8796V71.1797C60.0547 70.3964 60.5383 69.8742 61.2636 69.8742H65.2527C66.0988 69.8742 66.5824 70.3964 66.5824 71.1797V75.8796C66.5824 76.663 65.978 77.3157 65.2527 77.3157ZM61.7471 75.488H64.89V71.7019H61.7471V75.488Z" fill="#C7A676"/>
</svg>
