<svg width="200" height="63" viewBox="0 0 200 63" fill="none" xmlns="http://www.w3.org/2000/svg">
<path fill-rule="evenodd" clip-rule="evenodd" d="M200 27.3287C197.927 30.5202 190.189 35.3623 185.531 37.373C182.877 37.7777 180.134 40.2157 177.285 40.74C176.564 41.0789 176.564 41.0789 175.984 41.2423C176.213 41.9965 190.894 44.281 193.672 47.4619C195.358 53.4622 175.053 56.5335 168.424 57.5607C166.613 58.1182 157.893 58.8399 155.96 58.5781C154.747 59.0479 153.271 58.622 152.075 58.8951C144.673 58.7196 135.987 59.8233 128.833 58.9708C119.691 58.9708 111.427 59.3422 102.901 61.2553C102.901 62.0526 111.832 61.0473 112.359 61.9331C111.937 62.0088 96.309 62.9052 102.022 60.4685C116.14 56.9601 133.738 58.414 148.577 58.2385C159.194 57.8678 186.074 56.3261 192.123 49.4401C194.515 45.1774 179.202 43.7667 174.559 41.9307C174.279 41.9194 173.997 41.9095 173.699 41.8982C170.745 42.8597 156.329 47.4945 155.96 43.5601C152.9 43.5601 150.123 45.3416 148.33 42.871C145.727 42.871 144.498 44.6963 141.702 43.6796C139.643 43.5382 133.79 46.6745 133.79 43.2212C135.074 40.6742 140.049 38.5765 132.207 41.2098C130.062 42.0192 123.014 46.5323 122.645 43.899C116.491 44.0192 120.78 41.7673 114.188 45.3416C111.989 45.3416 114.643 44.2159 110.179 45.0027C103.586 45.0027 110.321 41.5154 102.813 44.2159C100.669 44.8173 90.3482 47.8114 92.3704 43.3846C92.6162 43.1009 92.862 42.8165 93.126 42.5321C91.1926 42.5321 75.3518 48.9151 75.3518 44.5216C75.7034 44.107 76.2303 43.691 76.846 43.2537C76.846 42.3467 68.0732 45.9429 67.9503 46.2712C66.4732 46.6207 57.5776 51.4515 57.5776 51.9213C55.7841 52.1081 50.5619 57.8678 50.1408 58.5993C47.4153 66.0868 73.2249 58.4465 75.5452 57.3648C79.114 56.3806 84.7584 53.6928 88.1507 53.3419C88.1507 53.0137 90.2776 52.4682 91.0173 52.5007C88.7664 53.5613 48.2427 69.8471 48.2427 59.1682C50.7394 52.1724 66.1569 46.0632 75.246 42.2265C75.2983 41.9534 75.3336 41.9859 74.859 41.9534C71.0434 42.784 66.051 44.2598 62.5176 42.6092C62.3888 42.5974 62.2598 42.5863 62.1307 42.576C57.4012 43.8657 44.5499 47.5164 45.8324 41.0683C43.0022 41.3187 35.0727 46.7735 32.4884 43.5601C32.172 41.7454 30.8178 42.7507 28.6386 43.4724C21.2895 44.6963 13.9233 46.0406 8.08653 41.964C5.74797 41.964 2.1269 47.8447 0 45.9309C0 45.3847 5.29164 42.2477 7.01455 41.0124C7.01455 40.7832 7.01455 40.7832 6.276 39.1984C5.53744 34.3676 10.3022 28.1048 16.28 24.9784C17.0709 23.9837 24.7364 19.8957 26.3535 19.4691C26.5128 19.1522 33.8779 16.5401 35.1968 16.1573C36.7968 15.0862 43.9172 10.9763 45.9565 10.769C49.2088 8.89983 53.6914 8.02607 57.3841 6.26582C60.443 5.87245 62.975 4.14545 66.5791 3.89359C67.247 3.74077 67.3005 3.44574 68.2667 3.47828C69.3569 2.6583 82.1023 0.691457 83.5089 0.778479C86.8147 -0.499967 99.6307 0.144561 101.53 2.11211C101.652 2.14465 101.792 2.18852 101.934 2.23238C111.674 8.28785 90.998 18.8239 83.9299 22.6281C83.0161 23.7757 71.5008 28.0058 71.5008 28.5194C71.0252 28.6178 70.9899 28.6616 70.867 28.7932C69.7062 29.1208 57.0131 34.127 56.9779 34.2586C58.1909 36.2368 54.8327 38.2588 55.0979 36.3571C58.2615 33.0233 50.9841 36.4229 49.9644 36.8382C45.0244 38.0621 40.3302 40.2922 35.5484 41.6697C34.5288 41.6697 32.5954 43.79 35.4608 43.5933C40.3837 42.467 45.7277 40.4011 49.0859 37.7678C50.9147 36.7731 52.0572 37.3412 50.1943 38.6748C45.3943 41.3194 46.3092 44.4897 53.1121 43.7575C55.0638 43.408 60.3725 42.4458 61.5514 41.5388C61.0416 37.8223 72.03 32.226 77.9544 33.636C82.5427 35.6687 65.5776 41.451 64.0835 41.9647C64.0835 44.1721 79.642 39.2974 81.1726 39.5924C81.2431 40.2264 84.2315 39.8111 79.9948 38.8708C70.026 33.2964 108.633 23.5026 114.225 22.5298C118.129 20.9124 134.073 20.1908 126.673 25.1418C117.582 29.2517 107.052 32.2904 96.6264 34.4871C95.3781 34.6294 89.6995 34.7277 91.757 33.0226C92.3192 33.0226 93.0395 33.0771 93.1101 33.4924C94.7977 35.242 129.695 25.1963 126.934 22.6281C120.044 20.7263 103.71 25.9399 97.4356 27.9294C94.0603 28.6071 75.6169 35.3835 80.9621 38.1053C87.7308 39.7997 93.9192 34.6187 101.708 35.7338C104.837 37.1212 87.9584 39.001 85.4628 39.6031C84.9359 39.9306 77.3763 41.843 79.6966 41.9526C84.1609 40.1931 92.8108 37.5372 97.9283 39.8323C100.9 40.4004 91.9334 42.9361 94.1479 44.772C97.2421 45.7335 107.387 41.6902 109.901 40.1924C112.52 40.1924 110.341 41.2409 109.407 41.7885C104.186 46.9801 118.602 41.318 119.483 41.6796C120.747 43.5155 121.381 43.3294 125.231 42.2038C130.541 39.1319 135.832 35.9842 142.321 33.6778C142.619 32.913 148.86 31.4159 146.117 34.4871C143.832 36.367 141.212 37.6015 138.452 38.9026C138.699 41.231 131.931 44.5534 138.119 43.5919C142.339 42.5427 141.001 41.3951 144.378 39.2967C153.239 35.8866 148.598 41.2862 147.894 40.1931C150.902 36.8806 141.706 41.3845 142.848 43.0457C146.276 42.8264 148.613 41.5373 151.076 40.116C152.06 39.7877 153.608 39.9087 152.762 40.7605C147.224 44.0398 151.461 43.34 156.859 42.2364C157.633 41.9958 163.663 39.0342 163.998 40.728C163.046 41.9194 156.614 42.7939 157.65 44.0836C159.462 44.5753 176.725 41.8869 170.695 40.8157C163.225 37.9298 161.518 33.612 169.202 29.7653C173.893 27.7001 199.491 19.8851 200 27.3287ZM198.911 27.3287C197.275 28.6079 196.008 30.4877 194.042 31.4605C188.396 35.3843 181.717 38.2914 174.155 40.8171C172.381 40.8171 169.041 39.013 167.738 38.3027C158.807 31.515 180.151 27.0337 187.077 25.722C190.225 25.2847 198.629 23.9072 198.911 27.3287ZM145.305 33.8865C141.438 37.0886 135.723 38.8163 130.467 40.7612C129.571 40.7612 143.723 33.1981 145.305 33.8865ZM103.078 6.57217C101.266 12.114 94.4097 14.661 89.6278 18.7595C89.0657 18.8685 82.4551 22.6175 82.4551 22.6394C81.0838 23.6561 79.4315 23.8528 77.9726 24.9239C77.3399 25.1751 68.8664 28.1048 70.0784 28.356C68.6365 29.2524 64.3122 29.9627 63.6965 30.7388C61.358 31.2199 57.771 33.7556 55.5747 33.7556C48.2438 32.4439 39.3129 37.2641 34.811 40.2483C30.7325 43.691 13.187 45.9649 9.10845 41.1772C9.10845 40.5752 21.2917 33.121 23.4368 32.5854C24.791 36.3677 29.467 38.4442 35.4619 38.302C35.4619 38.28 28.8696 36.4766 27.8499 35.9849C26.2329 34.7617 24.527 33.3078 24.9834 31.602C29.9416 29.0118 35.9194 25.2197 42.2136 23.7325C41.7038 21.1862 24.791 30.7721 24.9663 30.2584C26.0735 29.887 37.6253 21.3942 37.7299 21.3942C40.2438 19.0878 46.0464 15.9613 38.6085 15.4152C38.6085 14.2124 51.9878 8.81281 53.7107 8.40883C53.7107 7.57823 72.8733 2.79131 73.5947 2.6491C81.2067 1.36924 102.76 -2.41233 103.078 6.57217ZM96.6253 40.2808C92.5468 41.8543 87.5897 42.7288 83.5976 44.2159C82.0853 44.5435 77.9714 45.7569 77.0053 44.8605C77.9896 42.259 92.0017 38.6628 96.4501 40.0403C96.5013 40.1167 96.5548 40.1931 96.6253 40.2808ZM77.234 34.739C75.0718 36.4108 65.4365 41.3293 63.0991 41.0895C63.0991 38.0395 76.0198 32.4764 77.234 34.739ZM53.8507 34.4001C53.3056 34.4001 49.4558 36.2255 47.8387 36.5757C44.3041 37.9305 39.6634 39.0894 36.815 40.4775C35.5837 40.4775 41.4569 37.5704 42.4059 37.1219C45.5001 35.8866 53.8507 33.1868 53.8507 34.4001ZM41.1052 16.8139C39.8045 18.0265 38.5914 20.1908 36.7809 20.9888C33.9154 23.7106 30.1885 26.126 26.7598 28.3008C26.3205 28.6722 25.4408 29.1208 25.3532 29.4158C23.7532 29.1753 32.9129 14.4636 40.7718 16.4198C41.0529 16.6384 41.0529 16.6384 41.1052 16.8139ZM32.3666 18.1143C27.7077 21.5463 23.8055 26.2243 23.2604 30.6072C22.3466 30.6836 20.5532 32.9568 19.2525 33.1542C19.1819 33.3396 9.14372 40.0396 8.33461 40.1599C4.43132 31.7873 21.467 21.8958 31.7339 18.093C31.9456 18.093 32.1561 18.1037 32.3666 18.1143Z" fill="#C7A676"/>
</svg>
