<svg width="146" height="25" viewBox="0 0 146 25" fill="none" xmlns="http://www.w3.org/2000/svg">
<line y1="15.5" x2="40" y2="15.5" stroke="#C7A676"/>
<line x1="106" y1="15.5" x2="146" y2="15.5" stroke="#C7A676"/>
<path d="M67.1594 5.64842C65.9475 5.77342 65.3963 5.8828 64.4688 6.17967C63.6069 6.45701 62.4738 7.04686 61.5813 7.67967C60.8113 8.22655 59.6081 9.35936 58.2125 10.8398C56.4844 12.6758 55.535 13.5039 54.4806 14.0859C53.5094 14.625 52.5425 14.9492 51.3437 15.1445C50.7269 15.2422 49.5019 15.2344 48.9112 15.125C47.7825 14.9219 47.0869 14.5781 46.8112 14.0937C46.4787 13.5078 46.505 12.7773 46.8769 12.293C47.1437 11.9453 47.6906 11.6406 48.045 11.6406C48.4169 11.6406 48.6969 11.9492 48.8325 12.5078C48.8762 12.6758 48.9287 12.8125 48.9506 12.8125C49.0294 12.8125 48.9506 11.9961 48.8456 11.6992C48.5087 10.7305 47.7256 10.5273 46.4525 11.0781C45.7656 11.375 45.3456 11.8476 45.1225 12.5664C45 12.9609 44.9912 13.8867 45.105 14.3281C45.595 16.2851 47.2356 17.7851 49.8169 18.6445C52.5162 19.5469 55.92 19.6015 60.6625 18.8242C61.8962 18.6211 62.6881 18.4492 63.7031 18.1601C66.5731 17.3398 69.3513 16.0508 71.3288 14.6211C71.8319 14.2578 72.5669 13.6015 72.8031 13.3086C72.8994 13.1875 72.9913 13.0898 73.0044 13.0859C73.0175 13.0859 73.1006 13.1797 73.1925 13.2969C73.4025 13.5703 74.2731 14.3359 74.7938 14.707C77.0994 16.3476 80.7306 17.8906 83.8281 18.5508C85.0094 18.8008 87.0963 19.1094 88.4438 19.2344C91.0994 19.4805 93.4269 19.375 95.2338 18.9219C98.3356 18.1484 100.344 16.5156 100.895 14.3281C101.009 13.8867 101 12.9609 100.878 12.5664C100.654 11.8476 100.234 11.375 99.5475 11.0781C99.0138 10.8476 98.6594 10.7656 98.2656 10.789C97.92 10.8086 97.7581 10.8711 97.5481 11.0625C97.2419 11.3398 97.0713 11.7812 97.0319 12.3906C97.0013 12.8945 97.0581 12.9453 97.1675 12.5078C97.3513 11.7461 97.7625 11.4883 98.375 11.7422C99.3813 12.1601 99.7225 13.1992 99.1581 14.1445C98.7688 14.7969 97.4869 15.207 95.8375 15.2109C94.2931 15.2109 92.8844 14.8437 91.5106 14.082C90.5438 13.5469 89.4631 12.6133 87.9188 10.9765C85.5738 8.49217 84.4713 7.55858 82.9706 6.78905C80.6781 5.60936 77.8344 5.30076 75.6906 6.00389C74.8288 6.28905 74.0981 6.71873 73.4375 7.33201L73 7.73436L72.5625 7.33201C71.3288 6.18748 69.6925 5.60936 67.75 5.6328C67.4963 5.6328 67.2338 5.64451 67.1594 5.64842Z" fill="#C7A676"/>
</svg>
