<?xml version="1.0" encoding="UTF-8" standalone="no"?> <svg id="Layer_1" data-name="Layer 1" xmlns="http://www.w3.org/2000/svg" viewBox="0 0 512 512"><title>Price Tag</title><path d="M448.214,42.677c-.167-.008-.3-.01-.495-.01l-149.255.406a56.173,56.173,0,0,0-38.391,15.245L31.922,272.2a33.516,33.516,0,0,0-.771,48.146l160.5,160.5a33.233,33.233,0,0,0,23.682,9.818c.182,0,.365-.005.552-.005A33.251,33.251,0,0,0,239.8,480.078L453.682,251.927a56.174,56.174,0,0,0,15.245-38.4l.4-149.74A21.963,21.963,0,0,0,448.214,42.677Zm-.62,170.8a34.944,34.944,0,0,1-9.474,23.865L224.234,465.484a12.08,12.08,0,0,1-8.693,3.844,11.568,11.568,0,0,1-8.807-3.562l-160.5-160.5a12.191,12.191,0,0,1,.281-17.5L274.667,73.88a34.9,34.9,0,0,1,23.859-9.474L447.385,64c.359.065.615.292.615.221Z" fill="#C7A676"/><path d="M296.12,215.883a10.667,10.667,0,0,0-15.083,0l-9.612,9.608a51.746,51.746,0,0,0-11.482-5.569c-14.583-4.781-29.266-2.148-38.3,6.891-17.323,17.318-7.12,40-1.641,52.19.8,1.792,1.536,3.411,2.089,4.828.755,1.948,1.714,4.109,2.75,6.422,6.339,14.182,8.333,21.958,2.5,27.792-3.214,3.214-9.865,3.9-16.568,1.7-12.776-4.193-21.937-16.734-24.5-33.547a10.669,10.669,0,0,0-21.094,3.219,70.093,70.093,0,0,0,11.992,30.33l-9.227,9.227a10.666,10.666,0,1,0,15.083,15.083l9.611-9.611a51.742,51.742,0,0,0,11.483,5.569,45.869,45.869,0,0,0,14.26,2.349c9.4,0,17.99-3.182,24.042-9.24,17.245-17.245,7.255-39.583,1.891-51.583-.875-1.958-1.7-3.781-2.333-5.427-.667-1.714-1.547-3.693-2.526-5.859-5.271-11.737-9.12-21.969-2.729-28.362,3.208-3.211,9.865-3.9,16.568-1.7,12.776,4.193,21.938,16.734,24.5,33.549a10.669,10.669,0,1,0,21.094-3.219,70.085,70.085,0,0,0-11.992-30.33l9.227-9.222A10.666,10.666,0,0,0,296.12,215.883Z" fill="#C7A676"/><path d="M369.347,110.645a32,32,0,1,0,32,32A32,32,0,0,0,369.347,110.645Zm0,42.667a10.667,10.667,0,1,1,10.667-10.667A10.667,10.667,0,0,1,369.347,153.311Z" fill="#C7A676"/></svg>